<svg id="visual" viewBox="0 0 900 600" width="900" height="600" xmlns="http://www.w3.org/2000/svg" xmlns:xlink="http://www.w3.org/1999/xlink" version="1.1"><path d="M0 121L10.7 113C21.3 105 42.7 89 64.2 88C85.7 87 107.3 101 128.8 113C150.3 125 171.7 135 193 125C214.3 115 235.7 85 257 72C278.3 59 299.7 63 321.2 63C342.7 63 364.3 59 385.8 70C407.3 81 428.7 107 450 101C471.3 95 492.7 57 514.2 44C535.7 31 557.3 43 578.8 58C600.3 73 621.7 91 643 104C664.3 117 685.7 125 707 126C728.3 127 749.7 121 771.2 107C792.7 93 814.3 71 835.8 71C857.3 71 878.7 93 889.3 104L900 115L900 0L889.3 0C878.7 0 857.3 0 835.8 0C814.3 0 792.7 0 771.2 0C749.7 0 728.3 0 707 0C685.7 0 664.3 0 643 0C621.7 0 600.3 0 578.8 0C557.3 0 535.7 0 514.2 0C492.7 0 471.3 0 450 0C428.7 0 407.3 0 385.8 0C364.3 0 342.7 0 321.2 0C299.7 0 278.3 0 257 0C235.7 0 214.3 0 193 0C171.7 0 150.3 0 128.8 0C107.3 0 85.7 0 64.2 0C42.7 0 21.3 0 10.7 0L0 0Z" fill="#e9e7e7"></path><path d="M0 271L10.7 262C21.3 253 42.7 235 64.2 239C85.7 243 107.3 269 128.8 271C150.3 273 171.7 251 193 241C214.3 231 235.7 233 257 229C278.3 225 299.7 215 321.2 205C342.7 195 364.3 185 385.8 184C407.3 183 428.7 191 450 185C471.3 179 492.7 159 514.2 167C535.7 175 557.3 211 578.8 234C600.3 257 621.7 267 643 262C664.3 257 685.7 237 707 225C728.3 213 749.7 209 771.2 185C792.7 161 814.3 117 835.8 128C857.3 139 878.7 205 889.3 238L900 271L900 113L889.3 102C878.7 91 857.3 69 835.8 69C814.3 69 792.7 91 771.2 105C749.7 119 728.3 125 707 124C685.7 123 664.3 115 643 102C621.7 89 600.3 71 578.8 56C557.3 41 535.7 29 514.2 42C492.7 55 471.3 93 450 99C428.7 105 407.3 79 385.8 68C364.3 57 342.7 61 321.2 61C299.7 61 278.3 57 257 70C235.7 83 214.3 113 193 123C171.7 133 150.3 123 128.8 111C107.3 99 85.7 85 64.2 86C42.7 87 21.3 103 10.7 111L0 119Z" fill="#e3e1e1"></path><path d="M0 307L10.7 311C21.3 315 42.7 323 64.2 331C85.7 339 107.3 347 128.8 332C150.3 317 171.7 279 193 274C214.3 269 235.7 297 257 298C278.3 299 299.7 273 321.2 268C342.7 263 364.3 279 385.8 279C407.3 279 428.7 263 450 257C471.3 251 492.7 255 514.2 265C535.7 275 557.3 291 578.8 296C600.3 301 621.7 295 643 282C664.3 269 685.7 249 707 256C728.3 263 749.7 297 771.2 290C792.7 283 814.3 235 835.8 231C857.3 227 878.7 267 889.3 287L900 307L900 269L889.3 236C878.7 203 857.3 137 835.8 126C814.3 115 792.7 159 771.2 183C749.7 207 728.3 211 707 223C685.7 235 664.3 255 643 260C621.7 265 600.3 255 578.8 232C557.3 209 535.7 173 514.2 165C492.7 157 471.3 177 450 183C428.7 189 407.3 181 385.8 182C364.3 183 342.7 193 321.2 203C299.7 213 278.3 223 257 227C235.7 231 214.3 229 193 239C171.7 249 150.3 271 128.8 269C107.3 267 85.7 241 64.2 237C42.7 233 21.3 251 10.7 260L0 269Z" fill="#dedcdc"></path><path d="M0 415L10.7 409C21.3 403 42.7 391 64.2 408C85.7 425 107.3 471 128.8 493C150.3 515 171.7 513 193 496C214.3 479 235.7 447 257 424C278.3 401 299.7 387 321.2 387C342.7 387 364.3 401 385.8 407C407.3 413 428.7 411 450 400C471.3 389 492.7 369 514.2 374C535.7 379 557.3 409 578.8 421C600.3 433 621.7 427 643 426C664.3 425 685.7 429 707 443C728.3 457 749.7 481 771.2 455C792.7 429 814.3 353 835.8 329C857.3 305 878.7 333 889.3 347L900 361L900 305L889.3 285C878.7 265 857.3 225 835.8 229C814.3 233 792.7 281 771.2 288C749.7 295 728.3 261 707 254C685.7 247 664.3 267 643 280C621.7 293 600.3 299 578.8 294C557.3 289 535.7 273 514.2 263C492.7 253 471.3 249 450 255C428.7 261 407.3 277 385.8 277C364.3 277 342.7 261 321.2 266C299.7 271 278.3 297 257 296C235.7 295 214.3 267 193 272C171.7 277 150.3 315 128.8 330C107.3 345 85.7 337 64.2 329C42.7 321 21.3 313 10.7 309L0 305Z" fill="#d6d4d4"></path><path d="M0 601L10.7 601C21.3 601 42.7 601 64.2 601C85.7 601 107.3 601 128.8 601C150.3 601 171.7 601 193 601C214.3 601 235.7 601 257 601C278.3 601 299.7 601 321.2 601C342.7 601 364.3 601 385.8 601C407.3 601 428.7 601 450 601C471.3 601 492.7 601 514.2 601C535.7 601 557.3 601 578.8 601C600.3 601 621.7 601 643 601C664.3 601 685.7 601 707 601C728.3 601 749.7 601 771.2 601C792.7 601 814.3 601 835.8 601C857.3 601 878.7 601 889.3 601L900 601L900 359L889.3 345C878.7 331 857.3 303 835.8 327C814.3 351 792.7 427 771.2 453C749.7 479 728.3 455 707 441C685.7 427 664.3 423 643 424C621.7 425 600.3 431 578.8 419C557.3 407 535.7 377 514.2 372C492.7 367 471.3 387 450 398C428.7 409 407.3 411 385.8 405C364.3 399 342.7 385 321.2 385C299.7 385 278.3 399 257 422C235.7 445 214.3 477 193 494C171.7 511 150.3 513 128.8 491C107.3 469 85.7 423 64.2 406C42.7 389 21.3 401 10.7 407L0 413Z" fill="#cfcdcd"></path></svg>