<svg xmlns="http://www.w3.org/2000/svg" viewBox="0 0 630 630">
  <rect width="630" height="630" fill="#f7df1e"/>
  <path d="M423.2 492.19c13.06 21.36 30.02 36.96 60.04 36.96 25.2 0 41.18-12.6 41.18-30.02 0-20.88-16.56-28.26-44.38-40.46l-15.26-6.54c-44.1-18.78-73.32-42.3-73.32-91.96 0-45.72 34.74-80.5 88.96-80.5 38.6 0 66.36 13.48 86.4 48.74l-47.32 30.38c-10.42-18.78-21.66-26.18-38.08-26.18-17.36 0-28.34 10.98-28.34 26.18 0 18.32 10.98 25.7 36.36 37.02l15.26 6.54c51.78 22.14 80.98 44.1 80.98 94.78 0 54.32-42.72 84.34-100.04 84.34-56.16 0-92.36-26.36-109.86-60.8zm-210.32 5.24c9.38 16.7 17.92 30.86 38.08 30.86 19.46 0 31.72-7.6 31.72-37.14V292.62h59.44v198.98c0 61.74-36.18 89.82-88.96 89.82-47.64 0-75.32-24.72-89.5-54.98z" fill="#000"/>
</svg>
