<!-- <svg width="800" height="600" xmlns="http://www.w3.org/2000/svg">
  <defs>
    <linearGradient id="grad2" x1="0%" y1="0%" x2="100%" y2="100%">
      <stop offset="0%" style="stop-color:#f093fb;stop-opacity:1" />
      <stop offset="100%" style="stop-color:#f5576c;stop-opacity:1" />
    </linearGradient>
  </defs>
  <rect width="100%" height="100%" fill="url(#grad2)" />
  <svg
    x="190"
    y="90"
    width="419.931"
    height="419.931"
    viewBox="0 0 32 32"
    xmlns="http://www.w3.org/2000/svg"
    fill="transparent"
    stroke="#ffffff"
    stroke-width="2"
  >
    <g id="SVGRepo_bgCarrier" strokeWidth="0" />
    <g
      id="SVGRepo_tracerCarrier" strokeLinecap="round" strokeLinejoin="round" />
    <g
      id="SVGRepo_iconCarrier">
      <path class="st0"
        d="M19,23v4c0,1.1-0.9,2-2,2H7c-1.1,0-2-0.9-2-2V5c0-1.1,0.9-2,2-2h10c1.1,0,2,0.9,2,2v2" />
      <line class="st0" x1="5" y1="7" x2="19" y2="7" />
      <line class="st0" x1="5" y1="23" x2="19" y2="23" />
      <line class="st0" x1="11" y1="26" x2="13" y2="26" />
      <polyline class="st0" points="14,12 11,15 14,18 " />
      <polyline class="st0" points="24,12 27,15 24,18 " />
      <line class="st0" x1="21" y1="11" x2="17" y2="19" />
    </g>
  </svg>
</svg> -->

<svg width="800" height="600" xmlns="http://www.w3.org/2000/svg">
  <defs>
    <linearGradient id="grad2" x1="0%" y1="0%" x2="100%" y2="100%">
      <stop offset="0%" style="stop-color:#f093fb;stop-opacity:1" />
      <stop offset="100%" style="stop-color:#f5576c;stop-opacity:1" />
    </linearGradient>
  </defs>

  <!-- Fondo degradado intacto -->
  <rect width="100%" height="100%" fill="url(#grad2)" />

  <!-- Ícono centrado con líneas redondas sin cortes -->
  <svg
    x="190"
    y="90"
    width="419.931"
    height="419.931"
    viewBox="0 0 32 32"
    xmlns="http://www.w3.org/2000/svg"
    fill="none"
    stroke="#ffffff"
    stroke-width="2"
    stroke-linecap="round"
    stroke-linejoin="round"
  >
    <g id="SVGRepo_bgCarrier" stroke-width="0" />
    <g id="SVGRepo_tracerCarrier" stroke-linecap="round" stroke-linejoin="round" />
    <g id="SVGRepo_iconCarrier">
      <path d="M19,23v4c0,1.1-0.9,2-2,2H7c-1.1,0-2-0.9-2-2V5c0-1.1,0.9-2,2-2h10c1.1,0,2,0.9,2,2v2" />
      <line x1="5" y1="7" x2="19" y2="7" />
      <line x1="5" y1="23" x2="19" y2="23" />
      <line x1="11" y1="26" x2="13" y2="26" />
      <polyline points="14,12 11,15 14,18" />
      <polyline points="24,12 27,15 24,18" />
      <line x1="21" y1="11" x2="17" y2="19" />
    </g>
  </svg>
</svg>